<mxfile host="app.diagrams.net" agent="Mozilla/5.0 (X11; Linux x86_64) AppleWebKit/537.36 (KHTML, like Gecko) Chrome/135.0.0.0 Safari/537.36" version="26.2.14">
  <diagram name="Page-1" id="hN2xKPJQGjU5kKfY8Zjz">
    <mxGraphModel dx="810" dy="453" grid="1" gridSize="10" guides="1" tooltips="1" connect="1" arrows="1" fold="1" page="1" pageScale="1" pageWidth="827" pageHeight="1169" math="0" shadow="0">
      <root>
        <mxCell id="0" />
        <mxCell id="1" parent="0" />
        <mxCell id="Dkue13LbwkOLUiuj8tLh-1" value="User" style="shape=umlActor;verticalLabelPosition=bottom;verticalAlign=top;html=1;outlineConnect=0;" vertex="1" parent="1">
          <mxGeometry x="90" y="100" width="30" height="60" as="geometry" />
        </mxCell>
        <mxCell id="Dkue13LbwkOLUiuj8tLh-2" value="Ticketing System" style="rounded=0;whiteSpace=wrap;html=1;" vertex="1" parent="1">
          <mxGeometry x="240" y="100" width="120" height="60" as="geometry" />
        </mxCell>
        <mxCell id="Dkue13LbwkOLUiuj8tLh-3" value="Train Tracking Service" style="rounded=0;whiteSpace=wrap;html=1;" vertex="1" parent="1">
          <mxGeometry x="480" y="100" width="120" height="60" as="geometry" />
        </mxCell>
        <mxCell id="Dkue13LbwkOLUiuj8tLh-4" value="" style="endArrow=none;dashed=1;html=1;rounded=0;" edge="1" parent="1" source="Dkue13LbwkOLUiuj8tLh-22" target="Dkue13LbwkOLUiuj8tLh-1">
          <mxGeometry width="50" height="50" relative="1" as="geometry">
            <mxPoint x="105" y="400" as="sourcePoint" />
            <mxPoint x="370" y="230" as="targetPoint" />
          </mxGeometry>
        </mxCell>
        <mxCell id="Dkue13LbwkOLUiuj8tLh-5" value="" style="endArrow=none;dashed=1;html=1;rounded=0;" edge="1" parent="1" source="Dkue13LbwkOLUiuj8tLh-20" target="Dkue13LbwkOLUiuj8tLh-2">
          <mxGeometry width="50" height="50" relative="1" as="geometry">
            <mxPoint x="300" y="400" as="sourcePoint" />
            <mxPoint x="370" y="230" as="targetPoint" />
          </mxGeometry>
        </mxCell>
        <mxCell id="Dkue13LbwkOLUiuj8tLh-6" value="" style="endArrow=none;dashed=1;html=1;rounded=0;" edge="1" parent="1" source="Dkue13LbwkOLUiuj8tLh-26" target="Dkue13LbwkOLUiuj8tLh-3">
          <mxGeometry width="50" height="50" relative="1" as="geometry">
            <mxPoint x="540" y="400" as="sourcePoint" />
            <mxPoint x="370" y="230" as="targetPoint" />
          </mxGeometry>
        </mxCell>
        <mxCell id="Dkue13LbwkOLUiuj8tLh-7" value="" style="endArrow=classic;html=1;rounded=0;" edge="1" parent="1">
          <mxGeometry width="50" height="50" relative="1" as="geometry">
            <mxPoint x="120" y="190" as="sourcePoint" />
            <mxPoint x="290" y="190" as="targetPoint" />
          </mxGeometry>
        </mxCell>
        <mxCell id="Dkue13LbwkOLUiuj8tLh-8" value="Select &quot;Track Train Status&quot;" style="edgeLabel;html=1;align=center;verticalAlign=middle;resizable=0;points=[];" vertex="1" connectable="0" parent="Dkue13LbwkOLUiuj8tLh-7">
          <mxGeometry x="-0.0565" y="-1" relative="1" as="geometry">
            <mxPoint as="offset" />
          </mxGeometry>
        </mxCell>
        <mxCell id="Dkue13LbwkOLUiuj8tLh-9" value="" style="endArrow=classic;html=1;rounded=0;dashed=1;" edge="1" parent="1">
          <mxGeometry width="50" height="50" relative="1" as="geometry">
            <mxPoint x="290" y="210" as="sourcePoint" />
            <mxPoint x="120" y="210" as="targetPoint" />
          </mxGeometry>
        </mxCell>
        <mxCell id="Dkue13LbwkOLUiuj8tLh-10" value="Request Train Info" style="edgeLabel;html=1;align=center;verticalAlign=middle;resizable=0;points=[];" vertex="1" connectable="0" parent="Dkue13LbwkOLUiuj8tLh-9">
          <mxGeometry x="0.0058" relative="1" as="geometry">
            <mxPoint as="offset" />
          </mxGeometry>
        </mxCell>
        <mxCell id="Dkue13LbwkOLUiuj8tLh-11" value="" style="endArrow=classic;html=1;rounded=0;" edge="1" parent="1">
          <mxGeometry width="50" height="50" relative="1" as="geometry">
            <mxPoint x="120" y="230" as="sourcePoint" />
            <mxPoint x="290" y="230" as="targetPoint" />
          </mxGeometry>
        </mxCell>
        <mxCell id="Dkue13LbwkOLUiuj8tLh-12" value="Enter Train Details" style="edgeLabel;html=1;align=center;verticalAlign=middle;resizable=0;points=[];" vertex="1" connectable="0" parent="Dkue13LbwkOLUiuj8tLh-11">
          <mxGeometry x="0.0532" relative="1" as="geometry">
            <mxPoint as="offset" />
          </mxGeometry>
        </mxCell>
        <mxCell id="Dkue13LbwkOLUiuj8tLh-13" value="" style="endArrow=classic;html=1;rounded=0;" edge="1" parent="1">
          <mxGeometry width="50" height="50" relative="1" as="geometry">
            <mxPoint x="320" y="250" as="sourcePoint" />
            <mxPoint x="520" y="250" as="targetPoint" />
          </mxGeometry>
        </mxCell>
        <mxCell id="Dkue13LbwkOLUiuj8tLh-15" value="Get Real-Time Train Status" style="edgeLabel;html=1;align=center;verticalAlign=middle;resizable=0;points=[];" vertex="1" connectable="0" parent="Dkue13LbwkOLUiuj8tLh-13">
          <mxGeometry x="-0.0059" relative="1" as="geometry">
            <mxPoint as="offset" />
          </mxGeometry>
        </mxCell>
        <mxCell id="Dkue13LbwkOLUiuj8tLh-16" value="" style="endArrow=classic;html=1;rounded=0;dashed=1;" edge="1" parent="1">
          <mxGeometry width="50" height="50" relative="1" as="geometry">
            <mxPoint x="520" y="270" as="sourcePoint" />
            <mxPoint x="320" y="270" as="targetPoint" />
          </mxGeometry>
        </mxCell>
        <mxCell id="Dkue13LbwkOLUiuj8tLh-17" value="Return Current Status Info" style="edgeLabel;html=1;align=center;verticalAlign=middle;resizable=0;points=[];" vertex="1" connectable="0" parent="Dkue13LbwkOLUiuj8tLh-16">
          <mxGeometry x="0.002" y="2" relative="1" as="geometry">
            <mxPoint as="offset" />
          </mxGeometry>
        </mxCell>
        <mxCell id="Dkue13LbwkOLUiuj8tLh-18" value="" style="endArrow=classic;html=1;rounded=0;dashed=1;" edge="1" parent="1">
          <mxGeometry width="50" height="50" relative="1" as="geometry">
            <mxPoint x="290" y="290" as="sourcePoint" />
            <mxPoint x="120" y="290" as="targetPoint" />
          </mxGeometry>
        </mxCell>
        <mxCell id="Dkue13LbwkOLUiuj8tLh-19" value="Display Train Status" style="edgeLabel;html=1;align=center;verticalAlign=middle;resizable=0;points=[];" vertex="1" connectable="0" parent="Dkue13LbwkOLUiuj8tLh-18">
          <mxGeometry x="-0.0404" y="1" relative="1" as="geometry">
            <mxPoint as="offset" />
          </mxGeometry>
        </mxCell>
        <mxCell id="Dkue13LbwkOLUiuj8tLh-21" value="" style="endArrow=none;dashed=1;html=1;rounded=0;" edge="1" parent="1" target="Dkue13LbwkOLUiuj8tLh-20">
          <mxGeometry width="50" height="50" relative="1" as="geometry">
            <mxPoint x="300" y="400" as="sourcePoint" />
            <mxPoint x="300" y="160" as="targetPoint" />
          </mxGeometry>
        </mxCell>
        <mxCell id="Dkue13LbwkOLUiuj8tLh-20" value="" style="rounded=0;whiteSpace=wrap;html=1;" vertex="1" parent="1">
          <mxGeometry x="295" y="180" width="10" height="120" as="geometry" />
        </mxCell>
        <mxCell id="Dkue13LbwkOLUiuj8tLh-23" value="" style="endArrow=none;dashed=1;html=1;rounded=0;" edge="1" parent="1" target="Dkue13LbwkOLUiuj8tLh-22">
          <mxGeometry width="50" height="50" relative="1" as="geometry">
            <mxPoint x="105" y="400" as="sourcePoint" />
            <mxPoint x="105" y="160" as="targetPoint" />
          </mxGeometry>
        </mxCell>
        <mxCell id="Dkue13LbwkOLUiuj8tLh-22" value="" style="rounded=0;whiteSpace=wrap;html=1;" vertex="1" parent="1">
          <mxGeometry x="100" y="180" width="10" height="20" as="geometry" />
        </mxCell>
        <mxCell id="Dkue13LbwkOLUiuj8tLh-24" value="" style="rounded=0;whiteSpace=wrap;html=1;" vertex="1" parent="1">
          <mxGeometry x="100" y="220" width="10" height="20" as="geometry" />
        </mxCell>
        <mxCell id="Dkue13LbwkOLUiuj8tLh-27" value="" style="endArrow=none;dashed=1;html=1;rounded=0;" edge="1" parent="1" target="Dkue13LbwkOLUiuj8tLh-26">
          <mxGeometry width="50" height="50" relative="1" as="geometry">
            <mxPoint x="540" y="400" as="sourcePoint" />
            <mxPoint x="540" y="160" as="targetPoint" />
          </mxGeometry>
        </mxCell>
        <mxCell id="Dkue13LbwkOLUiuj8tLh-26" value="" style="rounded=0;whiteSpace=wrap;html=1;" vertex="1" parent="1">
          <mxGeometry x="535" y="240" width="10" height="40" as="geometry" />
        </mxCell>
      </root>
    </mxGraphModel>
  </diagram>
</mxfile>
